<mxfile host="app.diagrams.net" modified="2022-05-19T09:53:22.567Z" agent="5.0 (Macintosh; Intel Mac OS X 10_15_7) AppleWebKit/537.36 (KHTML, like Gecko) Chrome/101.0.4951.54 Safari/537.36" etag="6Hsu9oSsJsJ2GY7cbG4N" version="17.4.0" type="github">
  <diagram name="Page-1" id="2c0d36ab-eaac-3732-788b-9136903baeff">
    <mxGraphModel dx="2066" dy="1129" grid="1" gridSize="10" guides="1" tooltips="1" connect="1" arrows="1" fold="1" page="1" pageScale="1.5" pageWidth="413" pageHeight="583" background="none" math="0" shadow="1">
      <root>
        <mxCell id="0" />
        <mxCell id="1" parent="0" />
        <mxCell id="2" value="MariaDB故障诊断功能" style="rounded=1;fillColor=#0050ef;strokeColor=#001DBC;fontColor=#ffffff;fontStyle=1;fontFamily=Tahoma;fontSize=22;" parent="1" vertex="1">
          <mxGeometry x="654" y="63.5" width="244" height="80" as="geometry" />
        </mxCell>
        <mxCell id="4" value="通用检查模块" style="rounded=1;fillColor=#0050ef;strokeColor=#001DBC;fontColor=#ffffff;fontStyle=1;fontFamily=Tahoma;fontSize=18;labelBorderColor=none;labelBackgroundColor=none;spacing=0;html=1;" parent="1" vertex="1">
          <mxGeometry x="1258.9999999999998" y="218" width="190" height="80" as="geometry" />
        </mxCell>
        <mxCell id="9" value="" style="edgeStyle=elbowEdgeStyle;elbow=vertical;strokeWidth=2;rounded=0;curved=1;" parent="1" source="2" target="4" edge="1">
          <mxGeometry x="166" y="92.5" width="100" height="100" as="geometry">
            <mxPoint x="166" y="192.5" as="sourcePoint" />
            <mxPoint x="266" y="92.5" as="targetPoint" />
            <Array as="points">
              <mxPoint x="1349" y="178" />
              <mxPoint x="889" y="178" />
              <mxPoint x="1319" y="177" />
              <mxPoint x="1359" y="187" />
            </Array>
          </mxGeometry>
        </mxCell>
        <mxCell id="10" value="多主检查模块" style="rounded=1;fillColor=#0050ef;strokeColor=#001DBC;fontColor=#ffffff;fontStyle=1;fontFamily=Tahoma;fontSize=18;" parent="1" vertex="1">
          <mxGeometry x="679" y="212.5" width="190" height="85.5" as="geometry" />
        </mxCell>
        <mxCell id="12" value="网络检查模块" style="rounded=1;fillColor=#0050ef;strokeColor=#001DBC;fontColor=#ffffff;fontStyle=1;fontFamily=Tahoma;fontSize=18;" parent="1" vertex="1">
          <mxGeometry x="372" y="212.5" width="187" height="85.5" as="geometry" />
        </mxCell>
        <mxCell id="13" value="资源检查模块" style="rounded=1;fillColor=#0050ef;strokeColor=#001DBC;fontStyle=1;fontFamily=Tahoma;fontSize=18;fontColor=#ffffff;" parent="1" vertex="1">
          <mxGeometry x="65" y="212.5" width="194" height="85.5" as="geometry" />
        </mxCell>
        <mxCell id="16" value="检查资源规格" style="rounded=1;fillColor=#6d8764;strokeColor=#3A5431;fontStyle=1;fontFamily=Tahoma;fontSize=14;align=left;fontColor=#ffffff;" parent="1" vertex="1">
          <mxGeometry x="194" y="332.5" width="130" height="60" as="geometry" />
        </mxCell>
        <mxCell id="17" value="检查资源单位" style="rounded=1;fillColor=#6d8764;strokeColor=#3A5431;fontStyle=1;fontFamily=Tahoma;fontSize=14;align=left;fontColor=#ffffff;" parent="1" vertex="1">
          <mxGeometry x="194" y="422.5" width="130" height="60" as="geometry" />
        </mxCell>
        <mxCell id="18" value="节点磁盘使用率" style="rounded=1;fillColor=#6d8764;strokeColor=#3A5431;fontStyle=1;fontFamily=Tahoma;fontSize=14;align=left;fontColor=#ffffff;" parent="1" vertex="1">
          <mxGeometry x="194" y="512.5" width="130" height="60" as="geometry" />
        </mxCell>
        <mxCell id="59" value="" style="edgeStyle=elbowEdgeStyle;elbow=vertical;strokeWidth=2;rounded=0;curved=1;" parent="1" edge="1">
          <mxGeometry x="177" y="102.5" width="100" height="100" as="geometry">
            <mxPoint x="468" y="178" as="sourcePoint" />
            <mxPoint x="468" y="212.5" as="targetPoint" />
          </mxGeometry>
        </mxCell>
        <mxCell id="61" value="" style="edgeStyle=elbowEdgeStyle;elbow=vertical;strokeWidth=2;rounded=0;curved=1;" parent="1" source="2" target="13" edge="1">
          <mxGeometry x="-194" y="12.5" width="100" height="100" as="geometry">
            <mxPoint x="-194" y="112.5" as="sourcePoint" />
            <mxPoint x="-94" y="12.5" as="targetPoint" />
          </mxGeometry>
        </mxCell>
        <mxCell id="64" value="" style="edgeStyle=elbowEdgeStyle;elbow=horizontal;strokeWidth=2;rounded=0;curved=1;" parent="1" source="13" target="16" edge="1">
          <mxGeometry x="-65" y="12.5" width="100" height="100" as="geometry">
            <mxPoint x="-65" y="112.5" as="sourcePoint" />
            <mxPoint x="35" y="12.5" as="targetPoint" />
            <Array as="points">
              <mxPoint x="160" y="312.5" />
            </Array>
          </mxGeometry>
        </mxCell>
        <mxCell id="65" value="" style="edgeStyle=elbowEdgeStyle;elbow=horizontal;strokeWidth=2;rounded=0;curved=1;" parent="1" source="13" target="17" edge="1">
          <mxGeometry x="-65" y="12.5" width="100" height="100" as="geometry">
            <mxPoint x="-65" y="112.5" as="sourcePoint" />
            <mxPoint x="35" y="12.5" as="targetPoint" />
            <Array as="points">
              <mxPoint x="160" y="352.5" />
            </Array>
          </mxGeometry>
        </mxCell>
        <mxCell id="69" value="" style="edgeStyle=elbowEdgeStyle;elbow=horizontal;strokeWidth=2;rounded=0;entryX=0;entryY=0.5;entryDx=0;entryDy=0;curved=1;" parent="1" source="13" target="18" edge="1">
          <mxGeometry x="-65" y="12.5" width="100" height="100" as="geometry">
            <mxPoint x="-65" y="112.5" as="sourcePoint" />
            <mxPoint x="194" y="812.5" as="targetPoint" />
            <Array as="points">
              <mxPoint x="160" y="542.5" />
            </Array>
          </mxGeometry>
        </mxCell>
        <mxCell id="xPJydppNvQIaj2kwLTz8-138" value="主从检查模块" style="rounded=1;fillColor=#0050ef;strokeColor=#001DBC;fontColor=#ffffff;fontStyle=1;fontFamily=Tahoma;fontSize=18;" parent="1" vertex="1">
          <mxGeometry x="979" y="218" width="190" height="80" as="geometry" />
        </mxCell>
        <mxCell id="xPJydppNvQIaj2kwLTz8-141" value="节点间网络联通行" style="rounded=1;fillColor=#6d8764;strokeColor=#3A5431;fontStyle=1;fontFamily=Tahoma;fontSize=14;align=left;fontColor=#ffffff;" parent="1" vertex="1">
          <mxGeometry x="501" y="337.5" width="130" height="60" as="geometry" />
        </mxCell>
        <mxCell id="xPJydppNvQIaj2kwLTz8-142" value="ClusterIP连通性" style="rounded=1;fillColor=#6d8764;strokeColor=#3A5431;fontStyle=1;fontFamily=Tahoma;fontSize=14;align=left;fontColor=#ffffff;" parent="1" vertex="1">
          <mxGeometry x="501" y="427.5" width="130" height="60" as="geometry" />
        </mxCell>
        <mxCell id="xPJydppNvQIaj2kwLTz8-143" value="LB连通性" style="rounded=1;fillColor=#6d8764;strokeColor=#3A5431;fontStyle=1;fontFamily=Tahoma;fontSize=14;align=left;fontColor=#ffffff;" parent="1" vertex="1">
          <mxGeometry x="501" y="517.5" width="130" height="60" as="geometry" />
        </mxCell>
        <mxCell id="xPJydppNvQIaj2kwLTz8-144" value="域名解析" style="rounded=1;fillColor=#6d8764;strokeColor=#3A5431;fontStyle=1;fontFamily=Tahoma;fontSize=14;align=left;fontColor=#ffffff;" parent="1" vertex="1">
          <mxGeometry x="501" y="607.5" width="130" height="60" as="geometry" />
        </mxCell>
        <mxCell id="xPJydppNvQIaj2kwLTz8-145" value="MTU正确性" style="rounded=1;fillColor=#6d8764;strokeColor=#3A5431;fontStyle=1;fontFamily=Tahoma;fontSize=14;align=left;fontColor=#ffffff;" parent="1" vertex="1">
          <mxGeometry x="501" y="697.5" width="130" height="60" as="geometry" />
        </mxCell>
        <mxCell id="xPJydppNvQIaj2kwLTz8-147" value="" style="edgeStyle=elbowEdgeStyle;elbow=horizontal;strokeWidth=2;rounded=0;curved=1;" parent="1" target="xPJydppNvQIaj2kwLTz8-141" edge="1">
          <mxGeometry x="243" y="17.5" width="100" height="100" as="geometry">
            <mxPoint x="468" y="297.5" as="sourcePoint" />
            <mxPoint x="343" y="17.5" as="targetPoint" />
            <Array as="points">
              <mxPoint x="468" y="317.5" />
            </Array>
          </mxGeometry>
        </mxCell>
        <mxCell id="xPJydppNvQIaj2kwLTz8-148" value="" style="edgeStyle=elbowEdgeStyle;elbow=horizontal;strokeWidth=2;rounded=0;curved=1;" parent="1" target="xPJydppNvQIaj2kwLTz8-142" edge="1">
          <mxGeometry x="243" y="17.5" width="100" height="100" as="geometry">
            <mxPoint x="468" y="297.5" as="sourcePoint" />
            <mxPoint x="343" y="17.5" as="targetPoint" />
            <Array as="points">
              <mxPoint x="468" y="357.5" />
            </Array>
          </mxGeometry>
        </mxCell>
        <mxCell id="xPJydppNvQIaj2kwLTz8-149" value="" style="edgeStyle=elbowEdgeStyle;elbow=horizontal;strokeWidth=2;rounded=0;curved=1;" parent="1" target="xPJydppNvQIaj2kwLTz8-143" edge="1">
          <mxGeometry x="243" y="17.5" width="100" height="100" as="geometry">
            <mxPoint x="468" y="297.5" as="sourcePoint" />
            <mxPoint x="343" y="17.5" as="targetPoint" />
            <Array as="points">
              <mxPoint x="468" y="407.5" />
            </Array>
          </mxGeometry>
        </mxCell>
        <mxCell id="xPJydppNvQIaj2kwLTz8-150" value="" style="edgeStyle=elbowEdgeStyle;elbow=horizontal;strokeWidth=2;rounded=0;curved=1;" parent="1" target="xPJydppNvQIaj2kwLTz8-144" edge="1">
          <mxGeometry x="243" y="17.5" width="100" height="100" as="geometry">
            <mxPoint x="468" y="318" as="sourcePoint" />
            <mxPoint x="343" y="17.5" as="targetPoint" />
            <Array as="points">
              <mxPoint x="468" y="457.5" />
            </Array>
          </mxGeometry>
        </mxCell>
        <mxCell id="xPJydppNvQIaj2kwLTz8-152" value="" style="edgeStyle=elbowEdgeStyle;elbow=horizontal;strokeWidth=2;rounded=0;curved=1;" parent="1" edge="1">
          <mxGeometry x="243" y="-72.5" width="100" height="100" as="geometry">
            <mxPoint x="468" y="318" as="sourcePoint" />
            <mxPoint x="502" y="727.5" as="targetPoint" />
            <Array as="points">
              <mxPoint x="468" y="457.5" />
            </Array>
          </mxGeometry>
        </mxCell>
        <mxCell id="xPJydppNvQIaj2kwLTz8-153" value="脑裂存在" style="rounded=1;fillColor=#6d8764;strokeColor=#3A5431;fontStyle=1;fontFamily=Tahoma;fontSize=14;align=left;fontColor=#ffffff;" parent="1" vertex="1">
          <mxGeometry x="801" y="332.5" width="130" height="60" as="geometry" />
        </mxCell>
        <mxCell id="xPJydppNvQIaj2kwLTz8-164" value="" style="edgeStyle=elbowEdgeStyle;elbow=horizontal;strokeWidth=2;rounded=0;curved=1;" parent="1" edge="1">
          <mxGeometry x="549" y="8.5" width="100" height="100" as="geometry">
            <mxPoint x="770" y="301" as="sourcePoint" />
            <mxPoint x="801" y="364" as="targetPoint" />
            <Array as="points">
              <mxPoint x="774" y="538.5" />
            </Array>
          </mxGeometry>
        </mxCell>
        <mxCell id="xPJydppNvQIaj2kwLTz8-165" value="主从正常同步" style="rounded=1;fillColor=#6d8764;strokeColor=#3A5431;fontStyle=1;fontFamily=Tahoma;fontSize=14;align=left;fontColor=#ffffff;" parent="1" vertex="1">
          <mxGeometry x="1102" y="336.5" width="130" height="60" as="geometry" />
        </mxCell>
        <mxCell id="xPJydppNvQIaj2kwLTz8-166" value="主从同步延迟" style="rounded=1;fillColor=#6d8764;strokeColor=#3A5431;fontStyle=1;fontFamily=Tahoma;fontSize=14;align=left;fontColor=#ffffff;" parent="1" vertex="1">
          <mxGeometry x="1102" y="421.5" width="130" height="60" as="geometry" />
        </mxCell>
        <mxCell id="xPJydppNvQIaj2kwLTz8-167" value="不停服从库重做" style="rounded=1;fillColor=#6d8764;strokeColor=#3A5431;fontStyle=1;fontFamily=Tahoma;fontSize=14;align=left;fontColor=#ffffff;" parent="1" vertex="1">
          <mxGeometry x="1102" y="512.5" width="130" height="60" as="geometry" />
        </mxCell>
        <mxCell id="xPJydppNvQIaj2kwLTz8-171" value="" style="edgeStyle=elbowEdgeStyle;elbow=horizontal;strokeWidth=2;rounded=0;curved=1;" parent="1" target="xPJydppNvQIaj2kwLTz8-165" edge="1">
          <mxGeometry x="843" y="16.5" width="100" height="100" as="geometry">
            <mxPoint x="1068" y="296.5" as="sourcePoint" />
            <mxPoint x="943" y="16.5" as="targetPoint" />
            <Array as="points">
              <mxPoint x="1068" y="316.5" />
            </Array>
          </mxGeometry>
        </mxCell>
        <mxCell id="xPJydppNvQIaj2kwLTz8-172" value="" style="edgeStyle=elbowEdgeStyle;elbow=horizontal;strokeWidth=2;rounded=0;curved=1;" parent="1" edge="1">
          <mxGeometry x="843" y="16.5" width="100" height="100" as="geometry">
            <mxPoint x="1068" y="296.5" as="sourcePoint" />
            <mxPoint x="1102" y="456.5" as="targetPoint" />
            <Array as="points">
              <mxPoint x="1068" y="356.5" />
            </Array>
          </mxGeometry>
        </mxCell>
        <mxCell id="xPJydppNvQIaj2kwLTz8-176" value="" style="edgeStyle=elbowEdgeStyle;elbow=horizontal;strokeWidth=2;rounded=0;entryX=0;entryY=0.5;entryDx=0;entryDy=0;curved=1;" parent="1" edge="1">
          <mxGeometry x="843" y="16.5" width="100" height="100" as="geometry">
            <mxPoint x="1069" y="323" as="sourcePoint" />
            <mxPoint x="1102" y="546.5" as="targetPoint" />
            <Array as="points">
              <mxPoint x="1068" y="546.5" />
            </Array>
          </mxGeometry>
        </mxCell>
        <mxCell id="xPJydppNvQIaj2kwLTz8-177" value="CR对象名称长度" style="rounded=1;fillColor=#6d8764;strokeColor=#3A5431;fontStyle=1;fontFamily=Tahoma;fontSize=14;align=left;fontColor=#ffffff;" parent="1" vertex="1">
          <mxGeometry x="1381" y="339.5" width="130" height="60" as="geometry" />
        </mxCell>
        <mxCell id="xPJydppNvQIaj2kwLTz8-178" value="账密正确性" style="rounded=1;fillColor=#6d8764;strokeColor=#3A5431;fontStyle=1;fontFamily=Tahoma;fontSize=14;align=left;fontColor=#ffffff;" parent="1" vertex="1">
          <mxGeometry x="1381" y="429.5" width="130" height="60" as="geometry" />
        </mxCell>
        <mxCell id="xPJydppNvQIaj2kwLTz8-179" value="正常读写" style="rounded=1;fillColor=#6d8764;strokeColor=#3A5431;fontStyle=1;fontFamily=Tahoma;fontSize=14;align=left;fontColor=#ffffff;" parent="1" vertex="1">
          <mxGeometry x="1381" y="519.5" width="130" height="60" as="geometry" />
        </mxCell>
        <mxCell id="xPJydppNvQIaj2kwLTz8-180" value="一键保存日志文件" style="rounded=1;fillColor=#6d8764;strokeColor=#3A5431;fontStyle=1;fontFamily=Tahoma;fontSize=14;align=left;fontColor=#ffffff;" parent="1" vertex="1">
          <mxGeometry x="1381" y="609.5" width="130" height="60" as="geometry" />
        </mxCell>
        <mxCell id="xPJydppNvQIaj2kwLTz8-181" value="死锁探测" style="rounded=1;fillColor=#f5f5f5;strokeColor=#666666;fontStyle=1;fontFamily=Tahoma;fontSize=14;align=left;gradientColor=#b3b3b3;" parent="1" vertex="1">
          <mxGeometry x="1381" y="699.5" width="130" height="60" as="geometry" />
        </mxCell>
        <mxCell id="xPJydppNvQIaj2kwLTz8-182" value="数据一致性比对..." style="rounded=1;fillColor=#f5f5f5;gradientColor=#b3b3b3;strokeColor=#666666;fontStyle=1;fontFamily=Tahoma;fontSize=14;align=left;" parent="1" vertex="1">
          <mxGeometry x="1381" y="789.4999999999999" width="130" height="60" as="geometry" />
        </mxCell>
        <mxCell id="xPJydppNvQIaj2kwLTz8-183" value="" style="edgeStyle=elbowEdgeStyle;elbow=horizontal;strokeWidth=2;rounded=0;curved=1;" parent="1" target="xPJydppNvQIaj2kwLTz8-177" edge="1">
          <mxGeometry x="1122" y="19.5" width="100" height="100" as="geometry">
            <mxPoint x="1347" y="299.5" as="sourcePoint" />
            <mxPoint x="1222" y="19.5" as="targetPoint" />
            <Array as="points">
              <mxPoint x="1347" y="319.5" />
            </Array>
          </mxGeometry>
        </mxCell>
        <mxCell id="xPJydppNvQIaj2kwLTz8-184" value="" style="edgeStyle=elbowEdgeStyle;elbow=horizontal;strokeWidth=2;rounded=0;curved=1;" parent="1" target="xPJydppNvQIaj2kwLTz8-178" edge="1">
          <mxGeometry x="1122" y="19.5" width="100" height="100" as="geometry">
            <mxPoint x="1347" y="299.5" as="sourcePoint" />
            <mxPoint x="1222" y="19.5" as="targetPoint" />
            <Array as="points">
              <mxPoint x="1347" y="359.5" />
            </Array>
          </mxGeometry>
        </mxCell>
        <mxCell id="xPJydppNvQIaj2kwLTz8-185" value="" style="edgeStyle=elbowEdgeStyle;elbow=horizontal;strokeWidth=2;rounded=0;curved=1;" parent="1" target="xPJydppNvQIaj2kwLTz8-179" edge="1">
          <mxGeometry x="1122" y="19.5" width="100" height="100" as="geometry">
            <mxPoint x="1347" y="299.5" as="sourcePoint" />
            <mxPoint x="1222" y="19.5" as="targetPoint" />
            <Array as="points">
              <mxPoint x="1347" y="409.5" />
            </Array>
          </mxGeometry>
        </mxCell>
        <mxCell id="xPJydppNvQIaj2kwLTz8-186" value="" style="edgeStyle=elbowEdgeStyle;elbow=horizontal;strokeWidth=2;rounded=0;curved=1;" parent="1" target="xPJydppNvQIaj2kwLTz8-180" edge="1">
          <mxGeometry x="1122" y="19.5" width="100" height="100" as="geometry">
            <mxPoint x="1347" y="299.5" as="sourcePoint" />
            <mxPoint x="1222" y="19.5" as="targetPoint" />
            <Array as="points">
              <mxPoint x="1347" y="459.5" />
            </Array>
          </mxGeometry>
        </mxCell>
        <mxCell id="xPJydppNvQIaj2kwLTz8-187" value="" style="edgeStyle=elbowEdgeStyle;elbow=horizontal;strokeWidth=2;rounded=0;curved=1;" parent="1" target="xPJydppNvQIaj2kwLTz8-181" edge="1">
          <mxGeometry x="1122" y="19.5" width="100" height="100" as="geometry">
            <mxPoint x="1347" y="299.5" as="sourcePoint" />
            <mxPoint x="1222" y="19.5" as="targetPoint" />
            <Array as="points">
              <mxPoint x="1347" y="499.5" />
            </Array>
          </mxGeometry>
        </mxCell>
        <mxCell id="xPJydppNvQIaj2kwLTz8-188" value="" style="edgeStyle=elbowEdgeStyle;elbow=horizontal;strokeWidth=2;rounded=0;curved=1;" parent="1" target="xPJydppNvQIaj2kwLTz8-182" edge="1">
          <mxGeometry x="1122" y="19.5" width="100" height="100" as="geometry">
            <mxPoint x="1347" y="299.5" as="sourcePoint" />
            <mxPoint x="1222" y="19.5" as="targetPoint" />
            <Array as="points">
              <mxPoint x="1347" y="549.5" />
            </Array>
          </mxGeometry>
        </mxCell>
        <mxCell id="xPJydppNvQIaj2kwLTz8-191" value="" style="edgeStyle=elbowEdgeStyle;elbow=vertical;strokeWidth=2;rounded=0;curved=1;" parent="1" edge="1">
          <mxGeometry x="485" y="102.5" width="100" height="100" as="geometry">
            <mxPoint x="776" y="140" as="sourcePoint" />
            <mxPoint x="776" y="212.5" as="targetPoint" />
          </mxGeometry>
        </mxCell>
        <mxCell id="xPJydppNvQIaj2kwLTz8-192" value="" style="edgeStyle=elbowEdgeStyle;elbow=vertical;strokeWidth=2;rounded=0;curved=1;" parent="1" edge="1">
          <mxGeometry x="778" y="108" width="100" height="100" as="geometry">
            <mxPoint x="1069" y="178" as="sourcePoint" />
            <mxPoint x="1069" y="218" as="targetPoint" />
          </mxGeometry>
        </mxCell>
        <mxCell id="xPJydppNvQIaj2kwLTz8-198" value="" style="html=1;whiteSpace=wrap;shape=isoCube2;backgroundOutline=1;isoAngle=15;fontSize=18;fillColor=#f5f5f5;gradientColor=#b3b3b3;strokeColor=#666666;" parent="1" vertex="1">
          <mxGeometry x="1149" y="102" width="74" height="40" as="geometry" />
        </mxCell>
        <mxCell id="xPJydppNvQIaj2kwLTz8-200" value="&lt;font style=&quot;font-size: 13px&quot;&gt;已实现&lt;/font&gt;" style="text;html=1;strokeColor=none;fillColor=none;align=center;verticalAlign=middle;whiteSpace=wrap;rounded=0;fontSize=18;" parent="1" vertex="1">
          <mxGeometry x="1233" y="63.5" width="60" height="30" as="geometry" />
        </mxCell>
        <mxCell id="xPJydppNvQIaj2kwLTz8-201" value="&lt;font style=&quot;font-size: 13px&quot;&gt;实现中&lt;/font&gt;" style="text;html=1;strokeColor=none;fillColor=none;align=center;verticalAlign=middle;whiteSpace=wrap;rounded=0;fontSize=18;" parent="1" vertex="1">
          <mxGeometry x="1235" y="108" width="60" height="30" as="geometry" />
        </mxCell>
        <mxCell id="xPJydppNvQIaj2kwLTz8-203" value="" style="html=1;whiteSpace=wrap;shape=isoCube2;backgroundOutline=1;isoAngle=15;fontSize=18;fillColor=#6d8764;strokeColor=#3A5431;fontColor=#ffffff;" parent="1" vertex="1">
          <mxGeometry x="1149" y="53.5" width="74" height="40" as="geometry" />
        </mxCell>
      </root>
    </mxGraphModel>
  </diagram>
</mxfile>
